<svg xmlns="http://www.w3.org/2000/svg" xmlns:xlink="http://www.w3.org/1999/xlink" width="6144" zoomAndPan="magnify" viewBox="0 0 4608 576" height="768" preserveAspectRatio="xMidYMid meet" version="1.0"><defs><g/></defs><g fill="#ffffff" fill-opacity="1"><g transform="translate(32.893735, 480)"><g><path d="M 166.3125 -57.359375 C 169.144531 -57.359375 170.5625 -56.078125 170.5625 -53.515625 L 170.5625 -3.46875 C 170.5625 -1.15625 169.144531 0 166.3125 0 L 4.234375 0 C 1.410156 0 0 -1.15625 0 -3.46875 L 0 -57.359375 Z M 58.90625 -116.265625 L 0 -116.265625 L 0 -304.53125 C 0 -306.84375 1.410156 -308 4.234375 -308 L 55.0625 -308 C 57.625 -308 58.90625 -306.84375 58.90625 -304.53125 Z M 58.90625 -116.265625 "/></g></g></g><g fill="#ffffff" fill-opacity="1"><g transform="translate(254.652211, 480)"><g><path d="M 177.09375 -153.234375 C 177.09375 -145.273438 174.332031 -138.472656 168.8125 -132.828125 C 163.300781 -127.179688 156.4375 -124.359375 148.21875 -124.359375 C 140.269531 -124.359375 133.46875 -127.179688 127.8125 -132.828125 C 122.164062 -138.472656 119.34375 -145.273438 119.34375 -153.234375 C 119.34375 -161.441406 122.164062 -168.367188 127.8125 -174.015625 C 133.46875 -179.660156 140.269531 -182.484375 148.21875 -182.484375 C 156.4375 -182.484375 163.300781 -179.660156 168.8125 -174.015625 C 174.332031 -168.367188 177.09375 -161.441406 177.09375 -153.234375 Z M 296.453125 -154.390625 C 296.453125 -135.140625 293.367188 -116.335938 287.203125 -97.984375 C 281.046875 -79.628906 271.804688 -63.070312 259.484375 -48.3125 C 247.171875 -33.5625 231.769531 -21.820312 213.28125 -13.09375 C 194.800781 -4.363281 173.242188 0 148.609375 0 C 123.710938 0 101.957031 -4.363281 83.34375 -13.09375 C 64.738281 -21.820312 49.273438 -33.5625 36.953125 -48.3125 C 24.640625 -63.070312 15.398438 -79.628906 9.234375 -97.984375 C 3.078125 -116.335938 0 -135.140625 0 -154.390625 C 0 -173.640625 3.078125 -192.375 9.234375 -210.59375 C 15.398438 -228.820312 24.640625 -245.25 36.953125 -259.875 C 49.273438 -274.5 64.738281 -286.175781 83.34375 -294.90625 C 101.957031 -303.632812 123.710938 -308 148.609375 -308 C 173.242188 -308 194.800781 -303.632812 213.28125 -294.90625 C 231.769531 -286.175781 247.171875 -274.5 259.484375 -259.875 C 271.804688 -245.25 281.046875 -228.820312 287.203125 -210.59375 C 293.367188 -192.375 296.453125 -173.640625 296.453125 -154.390625 Z M 238.703125 -153.234375 C 238.703125 -165.804688 236.773438 -178.0625 232.921875 -190 C 229.078125 -201.9375 223.429688 -212.71875 215.984375 -222.34375 C 208.535156 -231.96875 199.164062 -239.601562 187.875 -245.25 C 176.582031 -250.894531 163.492188 -253.71875 148.609375 -253.71875 C 133.460938 -253.71875 120.242188 -250.894531 108.953125 -245.25 C 97.660156 -239.601562 88.226562 -231.96875 80.65625 -222.34375 C 73.082031 -212.71875 67.4375 -201.9375 63.71875 -190 C 60 -178.0625 58.140625 -165.804688 58.140625 -153.234375 C 58.140625 -140.910156 60 -128.84375 63.71875 -117.03125 C 67.4375 -105.226562 73.082031 -94.578125 80.65625 -85.078125 C 88.226562 -75.585938 97.660156 -68.019531 108.953125 -62.375 C 120.242188 -56.726562 133.460938 -53.90625 148.609375 -53.90625 C 163.492188 -53.90625 176.582031 -56.726562 187.875 -62.375 C 199.164062 -68.019531 208.535156 -75.585938 215.984375 -85.078125 C 223.429688 -94.578125 229.078125 -105.226562 232.921875 -117.03125 C 236.773438 -128.84375 238.703125 -140.910156 238.703125 -153.234375 Z M 238.703125 -153.234375 "/></g></g></g><g fill="#ffffff" fill-opacity="1"><g transform="translate(608.079624, 480)"><g><path d="M 141.296875 -170.9375 C 157.460938 -163.5 169.84375 -152.65625 178.4375 -138.40625 C 187.039062 -124.164062 191.34375 -107.929688 191.34375 -89.703125 C 191.34375 -70.453125 186.785156 -54.15625 177.671875 -40.8125 C 168.566406 -27.46875 156.757812 -17.328125 142.25 -10.390625 C 127.75 -3.460938 112.285156 0 95.859375 0 C 95.859375 0 95.734375 0 95.484375 0 L 95.484375 -55.4375 C 95.734375 -55.4375 95.859375 -55.4375 95.859375 -55.4375 C 106.128906 -55.4375 115.113281 -58.582031 122.8125 -64.875 C 130.507812 -71.164062 134.359375 -79.441406 134.359375 -89.703125 C 134.359375 -97.398438 132.367188 -103.941406 128.390625 -109.328125 C 124.421875 -114.722656 119.484375 -118.960938 113.578125 -122.046875 C 107.671875 -125.128906 101.765625 -126.796875 95.859375 -127.046875 C 94.578125 -127.046875 89.441406 -127.492188 80.453125 -128.390625 C 71.472656 -129.296875 61.335938 -132.3125 50.046875 -137.4375 C 34.140625 -144.882812 21.820312 -155.21875 13.09375 -168.4375 C 4.363281 -181.65625 0 -197.25 0 -215.21875 C 0 -234.46875 4.550781 -251.019531 13.65625 -264.875 C 22.769531 -278.738281 34.640625 -289.390625 49.265625 -296.828125 C 63.898438 -304.273438 79.429688 -308 95.859375 -308 C 113.578125 -308 129.492188 -304.34375 143.609375 -297.03125 C 157.722656 -289.71875 168.953125 -279.453125 177.296875 -266.234375 C 185.640625 -253.015625 189.9375 -237.675781 190.1875 -220.21875 C 190.445312 -219.707031 190.125 -219.066406 189.21875 -218.296875 C 188.320312 -217.523438 187.234375 -217.140625 185.953125 -217.140625 L 137.828125 -217.140625 C 136.804688 -217.140625 135.84375 -217.523438 134.9375 -218.296875 C 134.039062 -219.066406 133.59375 -219.707031 133.59375 -220.21875 C 133.332031 -231.257812 129.476562 -239.410156 122.03125 -244.671875 C 114.59375 -249.929688 105.867188 -252.5625 95.859375 -252.5625 C 85.335938 -252.5625 76.289062 -249.414062 68.71875 -243.125 C 61.144531 -236.832031 57.359375 -227.53125 57.359375 -215.21875 C 57.359375 -204.175781 61.335938 -195.765625 69.296875 -189.984375 C 77.253906 -184.210938 86.109375 -181.328125 95.859375 -181.328125 C 96.628906 -181.328125 99.195312 -181.195312 103.5625 -180.9375 C 107.925781 -180.6875 113.507812 -179.851562 120.3125 -178.4375 C 127.113281 -177.03125 134.109375 -174.53125 141.296875 -170.9375 Z M 141.296875 -170.9375 "/></g></g></g><g fill="#ffffff" fill-opacity="1"><g transform="translate(989.99715, 480)"><g><path d="M 141.296875 -170.9375 C 157.460938 -163.5 169.84375 -152.65625 178.4375 -138.40625 C 187.039062 -124.164062 191.34375 -107.929688 191.34375 -89.703125 C 191.34375 -70.453125 186.785156 -54.15625 177.671875 -40.8125 C 168.566406 -27.46875 156.757812 -17.328125 142.25 -10.390625 C 127.75 -3.460938 112.285156 0 95.859375 0 C 95.859375 0 95.734375 0 95.484375 0 L 95.484375 -55.4375 C 95.734375 -55.4375 95.859375 -55.4375 95.859375 -55.4375 C 106.128906 -55.4375 115.113281 -58.582031 122.8125 -64.875 C 130.507812 -71.164062 134.359375 -79.441406 134.359375 -89.703125 C 134.359375 -97.398438 132.367188 -103.941406 128.390625 -109.328125 C 124.421875 -114.722656 119.484375 -118.960938 113.578125 -122.046875 C 107.671875 -125.128906 101.765625 -126.796875 95.859375 -127.046875 C 94.578125 -127.046875 89.441406 -127.492188 80.453125 -128.390625 C 71.472656 -129.296875 61.335938 -132.3125 50.046875 -137.4375 C 34.140625 -144.882812 21.820312 -155.21875 13.09375 -168.4375 C 4.363281 -181.65625 0 -197.25 0 -215.21875 C 0 -234.46875 4.550781 -251.019531 13.65625 -264.875 C 22.769531 -278.738281 34.640625 -289.390625 49.265625 -296.828125 C 63.898438 -304.273438 79.429688 -308 95.859375 -308 C 113.578125 -308 129.492188 -304.34375 143.609375 -297.03125 C 157.722656 -289.71875 168.953125 -279.453125 177.296875 -266.234375 C 185.640625 -253.015625 189.9375 -237.675781 190.1875 -220.21875 C 190.445312 -219.707031 190.125 -219.066406 189.21875 -218.296875 C 188.320312 -217.523438 187.234375 -217.140625 185.953125 -217.140625 L 137.828125 -217.140625 C 136.804688 -217.140625 135.84375 -217.523438 134.9375 -218.296875 C 134.039062 -219.066406 133.59375 -219.707031 133.59375 -220.21875 C 133.332031 -231.257812 129.476562 -239.410156 122.03125 -244.671875 C 114.59375 -249.929688 105.867188 -252.5625 95.859375 -252.5625 C 85.335938 -252.5625 76.289062 -249.414062 68.71875 -243.125 C 61.144531 -236.832031 57.359375 -227.53125 57.359375 -215.21875 C 57.359375 -204.175781 61.335938 -195.765625 69.296875 -189.984375 C 77.253906 -184.210938 86.109375 -181.328125 95.859375 -181.328125 C 96.628906 -181.328125 99.195312 -181.195312 103.5625 -180.9375 C 107.925781 -180.6875 113.507812 -179.851562 120.3125 -178.4375 C 127.113281 -177.03125 134.109375 -174.53125 141.296875 -170.9375 Z M 141.296875 -170.9375 "/></g></g></g><g fill="#ffffff" fill-opacity="1"><g transform="translate(1233.31547, 480)"><g><path d="M 241.78125 -4.625 C 242.289062 -3.59375 242.160156 -2.5625 241.390625 -1.53125 C 240.617188 -0.507812 239.59375 0 238.3125 0 L 185.1875 0 C 183.382812 0 182.226562 -0.769531 181.71875 -2.3125 L 120.890625 -174.015625 L 60.828125 -2.3125 C 60.566406 -0.769531 59.285156 0 56.984375 0 L 4.234375 0 C 2.441406 0 1.222656 -0.507812 0.578125 -1.53125 C -0.0664062 -2.5625 -0.128906 -3.59375 0.390625 -4.625 L 117.046875 -305.6875 C 117.554688 -307.226562 118.835938 -308 120.890625 -308 C 122.941406 -308 124.222656 -307.226562 124.734375 -305.6875 Z M 241.78125 -4.625 "/></g></g></g><g fill="#ffffff" fill-opacity="1"><g transform="translate(1529.7633, 480)"><g><path d="M 254.875 -308 C 257.695312 -308 259.109375 -306.84375 259.109375 -304.53125 L 259.109375 -3.46875 C 259.109375 -1.15625 257.695312 0 254.875 0 L 204.046875 0 C 203.796875 0 203.21875 -0.125 202.3125 -0.375 C 201.414062 -0.632812 200.835938 -0.894531 200.578125 -1.15625 L 58.90625 -204.046875 L 58.90625 -73.921875 L 0 -73.921875 L 0 -304.53125 C 0 -306.84375 1.28125 -308 3.84375 -308 L 55.0625 -308 C 55.570312 -308 56.210938 -307.929688 56.984375 -307.796875 C 57.753906 -307.671875 58.265625 -307.351562 58.515625 -306.84375 L 200.578125 -103.953125 L 200.578125 -304.53125 C 200.578125 -306.84375 202.117188 -308 205.203125 -308 Z M 254.875 -308 "/></g></g></g><g fill="#ffffff" fill-opacity="1"><g transform="translate(1844.306072, 480)"><g><path d="M 63.53125 -196.34375 L 122.046875 -196.34375 L 122.046875 -3.46875 C 122.046875 -1.15625 120.503906 0 117.421875 0 L 67.765625 0 C 64.941406 0 63.53125 -1.15625 63.53125 -3.46875 Z M 4.234375 -255.25 C 1.410156 -255.25 0 -256.40625 0 -258.71875 L 0 -304.53125 C 0 -306.84375 1.410156 -308 4.234375 -308 L 180.953125 -308 C 183.773438 -308 185.1875 -306.84375 185.1875 -304.53125 L 185.1875 -258.71875 C 185.1875 -256.40625 183.773438 -255.25 180.953125 -255.25 Z M 4.234375 -255.25 "/></g></g></g><g fill="#ffffff" fill-opacity="1"><g transform="translate(2081.079562, 480)"><g><path d="M 177.09375 -153.234375 C 177.09375 -145.273438 174.332031 -138.472656 168.8125 -132.828125 C 163.300781 -127.179688 156.4375 -124.359375 148.21875 -124.359375 C 140.269531 -124.359375 133.46875 -127.179688 127.8125 -132.828125 C 122.164062 -138.472656 119.34375 -145.273438 119.34375 -153.234375 C 119.34375 -161.441406 122.164062 -168.367188 127.8125 -174.015625 C 133.46875 -179.660156 140.269531 -182.484375 148.21875 -182.484375 C 156.4375 -182.484375 163.300781 -179.660156 168.8125 -174.015625 C 174.332031 -168.367188 177.09375 -161.441406 177.09375 -153.234375 Z M 296.453125 -154.390625 C 296.453125 -135.140625 293.367188 -116.335938 287.203125 -97.984375 C 281.046875 -79.628906 271.804688 -63.070312 259.484375 -48.3125 C 247.171875 -33.5625 231.769531 -21.820312 213.28125 -13.09375 C 194.800781 -4.363281 173.242188 0 148.609375 0 C 123.710938 0 101.957031 -4.363281 83.34375 -13.09375 C 64.738281 -21.820312 49.273438 -33.5625 36.953125 -48.3125 C 24.640625 -63.070312 15.398438 -79.628906 9.234375 -97.984375 C 3.078125 -116.335938 0 -135.140625 0 -154.390625 C 0 -173.640625 3.078125 -192.375 9.234375 -210.59375 C 15.398438 -228.820312 24.640625 -245.25 36.953125 -259.875 C 49.273438 -274.5 64.738281 -286.175781 83.34375 -294.90625 C 101.957031 -303.632812 123.710938 -308 148.609375 -308 C 173.242188 -308 194.800781 -303.632812 213.28125 -294.90625 C 231.769531 -286.175781 247.171875 -274.5 259.484375 -259.875 C 271.804688 -245.25 281.046875 -228.820312 287.203125 -210.59375 C 293.367188 -192.375 296.453125 -173.640625 296.453125 -154.390625 Z M 238.703125 -153.234375 C 238.703125 -165.804688 236.773438 -178.0625 232.921875 -190 C 229.078125 -201.9375 223.429688 -212.71875 215.984375 -222.34375 C 208.535156 -231.96875 199.164062 -239.601562 187.875 -245.25 C 176.582031 -250.894531 163.492188 -253.71875 148.609375 -253.71875 C 133.460938 -253.71875 120.242188 -250.894531 108.953125 -245.25 C 97.660156 -239.601562 88.226562 -231.96875 80.65625 -222.34375 C 73.082031 -212.71875 67.4375 -201.9375 63.71875 -190 C 60 -178.0625 58.140625 -165.804688 58.140625 -153.234375 C 58.140625 -140.910156 60 -128.84375 63.71875 -117.03125 C 67.4375 -105.226562 73.082031 -94.578125 80.65625 -85.078125 C 88.226562 -75.585938 97.660156 -68.019531 108.953125 -62.375 C 120.242188 -56.726562 133.460938 -53.90625 148.609375 -53.90625 C 163.492188 -53.90625 176.582031 -56.726562 187.875 -62.375 C 199.164062 -68.019531 208.535156 -75.585938 215.984375 -85.078125 C 223.429688 -94.578125 229.078125 -105.226562 232.921875 -117.03125 C 236.773438 -128.84375 238.703125 -140.910156 238.703125 -153.234375 Z M 238.703125 -153.234375 "/></g></g></g><g fill="#ffffff" fill-opacity="1"><g transform="translate(2434.506975, 480)"><g><path d="M 141.296875 -170.9375 C 157.460938 -163.5 169.84375 -152.65625 178.4375 -138.40625 C 187.039062 -124.164062 191.34375 -107.929688 191.34375 -89.703125 C 191.34375 -70.453125 186.785156 -54.15625 177.671875 -40.8125 C 168.566406 -27.46875 156.757812 -17.328125 142.25 -10.390625 C 127.75 -3.460938 112.285156 0 95.859375 0 C 95.859375 0 95.734375 0 95.484375 0 L 95.484375 -55.4375 C 95.734375 -55.4375 95.859375 -55.4375 95.859375 -55.4375 C 106.128906 -55.4375 115.113281 -58.582031 122.8125 -64.875 C 130.507812 -71.164062 134.359375 -79.441406 134.359375 -89.703125 C 134.359375 -97.398438 132.367188 -103.941406 128.390625 -109.328125 C 124.421875 -114.722656 119.484375 -118.960938 113.578125 -122.046875 C 107.671875 -125.128906 101.765625 -126.796875 95.859375 -127.046875 C 94.578125 -127.046875 89.441406 -127.492188 80.453125 -128.390625 C 71.472656 -129.296875 61.335938 -132.3125 50.046875 -137.4375 C 34.140625 -144.882812 21.820312 -155.21875 13.09375 -168.4375 C 4.363281 -181.65625 0 -197.25 0 -215.21875 C 0 -234.46875 4.550781 -251.019531 13.65625 -264.875 C 22.769531 -278.738281 34.640625 -289.390625 49.265625 -296.828125 C 63.898438 -304.273438 79.429688 -308 95.859375 -308 C 113.578125 -308 129.492188 -304.34375 143.609375 -297.03125 C 157.722656 -289.71875 168.953125 -279.453125 177.296875 -266.234375 C 185.640625 -253.015625 189.9375 -237.675781 190.1875 -220.21875 C 190.445312 -219.707031 190.125 -219.066406 189.21875 -218.296875 C 188.320312 -217.523438 187.234375 -217.140625 185.953125 -217.140625 L 137.828125 -217.140625 C 136.804688 -217.140625 135.84375 -217.523438 134.9375 -218.296875 C 134.039062 -219.066406 133.59375 -219.707031 133.59375 -220.21875 C 133.332031 -231.257812 129.476562 -239.410156 122.03125 -244.671875 C 114.59375 -249.929688 105.867188 -252.5625 95.859375 -252.5625 C 85.335938 -252.5625 76.289062 -249.414062 68.71875 -243.125 C 61.144531 -236.832031 57.359375 -227.53125 57.359375 -215.21875 C 57.359375 -204.175781 61.335938 -195.765625 69.296875 -189.984375 C 77.253906 -184.210938 86.109375 -181.328125 95.859375 -181.328125 C 96.628906 -181.328125 99.195312 -181.195312 103.5625 -180.9375 C 107.925781 -180.6875 113.507812 -179.851562 120.3125 -178.4375 C 127.113281 -177.03125 134.109375 -174.53125 141.296875 -170.9375 Z M 141.296875 -170.9375 "/></g></g></g><g fill="#ffffff" fill-opacity="1"><g transform="translate(2816.424502, 480)"><g><path d="M 175.9375 -56.59375 L 234.84375 -56.59375 L 234.84375 -3.46875 C 234.84375 -1.15625 233.429688 0 230.609375 0 L 180.5625 0 C 165.164062 0 149.125 -1.15625 132.4375 -3.46875 C 115.757812 -5.78125 99.585938 -10.078125 83.921875 -16.359375 C 68.265625 -22.648438 54.082031 -31.503906 41.375 -42.921875 C 28.675781 -54.347656 18.601562 -69.109375 11.15625 -87.203125 C 3.71875 -105.296875 0 -127.5625 0 -154 C 0 -181.207031 3.785156 -204.050781 11.359375 -222.53125 C 18.929688 -241.007812 29.066406 -255.894531 41.765625 -267.1875 C 54.472656 -278.476562 68.71875 -287.078125 84.5 -292.984375 C 100.289062 -298.890625 116.460938 -302.867188 133.015625 -304.921875 C 149.566406 -306.972656 165.414062 -308 180.5625 -308 L 230.609375 -308 C 233.429688 -308 234.84375 -306.84375 234.84375 -304.53125 L 234.84375 -183.640625 L 175.9375 -183.640625 L 175.9375 -251.796875 C 153.613281 -253.078125 133.660156 -250.570312 116.078125 -244.28125 C 98.492188 -237.988281 84.632812 -227.460938 74.5 -212.703125 C 64.363281 -197.953125 59.296875 -178.382812 59.296875 -154 C 59.296875 -135.007812 62.050781 -119.351562 67.5625 -107.03125 C 73.082031 -94.707031 80.398438 -85.082031 89.515625 -78.15625 C 98.628906 -71.226562 108.445312 -66.160156 118.96875 -62.953125 C 129.488281 -59.742188 139.753906 -57.816406 149.765625 -57.171875 C 159.773438 -56.523438 168.5 -56.332031 175.9375 -56.59375 Z M 175.9375 -56.59375 "/></g></g></g><g fill="#ffffff" fill-opacity="1"><g transform="translate(3105.557545, 480)"><g><path d="M 227.15625 -308 C 229.71875 -308 231 -306.84375 231 -304.53125 L 231 -102.796875 C 231 -81.234375 225.925781 -62.75 215.78125 -47.34375 C 205.644531 -31.945312 191.847656 -20.207031 174.390625 -12.125 C 156.941406 -4.039062 137.3125 0 115.5 0 C 94.457031 0 75.144531 -4.171875 57.5625 -12.515625 C 39.976562 -20.859375 25.988281 -32.726562 15.59375 -48.125 C 5.195312 -63.519531 0 -81.742188 0 -102.796875 L 0 -252.171875 L 58.140625 -252.171875 L 58.140625 -103.1875 C 59.929688 -88.039062 66.410156 -76.488281 77.578125 -68.53125 C 88.742188 -60.570312 101.382812 -56.59375 115.5 -56.59375 C 125.25 -56.59375 134.488281 -58.257812 143.21875 -61.59375 C 151.945312 -64.9375 159.066406 -70.070312 164.578125 -77 C 170.097656 -83.925781 172.859375 -92.523438 172.859375 -102.796875 L 172.859375 -304.53125 C 172.859375 -306.84375 174.269531 -308 177.09375 -308 Z M 227.15625 -308 "/></g></g></g><g fill="#ffffff" fill-opacity="1"><g transform="translate(3390.45536, 480)"><g><path d="M 141.296875 -170.9375 C 157.460938 -163.5 169.84375 -152.65625 178.4375 -138.40625 C 187.039062 -124.164062 191.34375 -107.929688 191.34375 -89.703125 C 191.34375 -70.453125 186.785156 -54.15625 177.671875 -40.8125 C 168.566406 -27.46875 156.757812 -17.328125 142.25 -10.390625 C 127.75 -3.460938 112.285156 0 95.859375 0 C 95.859375 0 95.734375 0 95.484375 0 L 95.484375 -55.4375 C 95.734375 -55.4375 95.859375 -55.4375 95.859375 -55.4375 C 106.128906 -55.4375 115.113281 -58.582031 122.8125 -64.875 C 130.507812 -71.164062 134.359375 -79.441406 134.359375 -89.703125 C 134.359375 -97.398438 132.367188 -103.941406 128.390625 -109.328125 C 124.421875 -114.722656 119.484375 -118.960938 113.578125 -122.046875 C 107.671875 -125.128906 101.765625 -126.796875 95.859375 -127.046875 C 94.578125 -127.046875 89.441406 -127.492188 80.453125 -128.390625 C 71.472656 -129.296875 61.335938 -132.3125 50.046875 -137.4375 C 34.140625 -144.882812 21.820312 -155.21875 13.09375 -168.4375 C 4.363281 -181.65625 0 -197.25 0 -215.21875 C 0 -234.46875 4.550781 -251.019531 13.65625 -264.875 C 22.769531 -278.738281 34.640625 -289.390625 49.265625 -296.828125 C 63.898438 -304.273438 79.429688 -308 95.859375 -308 C 113.578125 -308 129.492188 -304.34375 143.609375 -297.03125 C 157.722656 -289.71875 168.953125 -279.453125 177.296875 -266.234375 C 185.640625 -253.015625 189.9375 -237.675781 190.1875 -220.21875 C 190.445312 -219.707031 190.125 -219.066406 189.21875 -218.296875 C 188.320312 -217.523438 187.234375 -217.140625 185.953125 -217.140625 L 137.828125 -217.140625 C 136.804688 -217.140625 135.84375 -217.523438 134.9375 -218.296875 C 134.039062 -219.066406 133.59375 -219.707031 133.59375 -220.21875 C 133.332031 -231.257812 129.476562 -239.410156 122.03125 -244.671875 C 114.59375 -249.929688 105.867188 -252.5625 95.859375 -252.5625 C 85.335938 -252.5625 76.289062 -249.414062 68.71875 -243.125 C 61.144531 -236.832031 57.359375 -227.53125 57.359375 -215.21875 C 57.359375 -204.175781 61.335938 -195.765625 69.296875 -189.984375 C 77.253906 -184.210938 86.109375 -181.328125 95.859375 -181.328125 C 96.628906 -181.328125 99.195312 -181.195312 103.5625 -180.9375 C 107.925781 -180.6875 113.507812 -179.851562 120.3125 -178.4375 C 127.113281 -177.03125 134.109375 -174.53125 141.296875 -170.9375 Z M 141.296875 -170.9375 "/></g></g></g><g fill="#ffffff" fill-opacity="1"><g transform="translate(3633.77359, 480)"><g><path d="M 63.53125 -196.34375 L 122.046875 -196.34375 L 122.046875 -3.46875 C 122.046875 -1.15625 120.503906 0 117.421875 0 L 67.765625 0 C 64.941406 0 63.53125 -1.15625 63.53125 -3.46875 Z M 4.234375 -255.25 C 1.410156 -255.25 0 -256.40625 0 -258.71875 L 0 -304.53125 C 0 -306.84375 1.410156 -308 4.234375 -308 L 180.953125 -308 C 183.773438 -308 185.1875 -306.84375 185.1875 -304.53125 L 185.1875 -258.71875 C 185.1875 -256.40625 183.773438 -255.25 180.953125 -255.25 Z M 4.234375 -255.25 "/></g></g></g><g fill="#ffffff" fill-opacity="1"><g transform="translate(3870.546893, 480)"><g><path d="M 177.09375 -153.234375 C 177.09375 -145.273438 174.332031 -138.472656 168.8125 -132.828125 C 163.300781 -127.179688 156.4375 -124.359375 148.21875 -124.359375 C 140.269531 -124.359375 133.46875 -127.179688 127.8125 -132.828125 C 122.164062 -138.472656 119.34375 -145.273438 119.34375 -153.234375 C 119.34375 -161.441406 122.164062 -168.367188 127.8125 -174.015625 C 133.46875 -179.660156 140.269531 -182.484375 148.21875 -182.484375 C 156.4375 -182.484375 163.300781 -179.660156 168.8125 -174.015625 C 174.332031 -168.367188 177.09375 -161.441406 177.09375 -153.234375 Z M 296.453125 -154.390625 C 296.453125 -135.140625 293.367188 -116.335938 287.203125 -97.984375 C 281.046875 -79.628906 271.804688 -63.070312 259.484375 -48.3125 C 247.171875 -33.5625 231.769531 -21.820312 213.28125 -13.09375 C 194.800781 -4.363281 173.242188 0 148.609375 0 C 123.710938 0 101.957031 -4.363281 83.34375 -13.09375 C 64.738281 -21.820312 49.273438 -33.5625 36.953125 -48.3125 C 24.640625 -63.070312 15.398438 -79.628906 9.234375 -97.984375 C 3.078125 -116.335938 0 -135.140625 0 -154.390625 C 0 -173.640625 3.078125 -192.375 9.234375 -210.59375 C 15.398438 -228.820312 24.640625 -245.25 36.953125 -259.875 C 49.273438 -274.5 64.738281 -286.175781 83.34375 -294.90625 C 101.957031 -303.632812 123.710938 -308 148.609375 -308 C 173.242188 -308 194.800781 -303.632812 213.28125 -294.90625 C 231.769531 -286.175781 247.171875 -274.5 259.484375 -259.875 C 271.804688 -245.25 281.046875 -228.820312 287.203125 -210.59375 C 293.367188 -192.375 296.453125 -173.640625 296.453125 -154.390625 Z M 238.703125 -153.234375 C 238.703125 -165.804688 236.773438 -178.0625 232.921875 -190 C 229.078125 -201.9375 223.429688 -212.71875 215.984375 -222.34375 C 208.535156 -231.96875 199.164062 -239.601562 187.875 -245.25 C 176.582031 -250.894531 163.492188 -253.71875 148.609375 -253.71875 C 133.460938 -253.71875 120.242188 -250.894531 108.953125 -245.25 C 97.660156 -239.601562 88.226562 -231.96875 80.65625 -222.34375 C 73.082031 -212.71875 67.4375 -201.9375 63.71875 -190 C 60 -178.0625 58.140625 -165.804688 58.140625 -153.234375 C 58.140625 -140.910156 60 -128.84375 63.71875 -117.03125 C 67.4375 -105.226562 73.082031 -94.578125 80.65625 -85.078125 C 88.226562 -75.585938 97.660156 -68.019531 108.953125 -62.375 C 120.242188 -56.726562 133.460938 -53.90625 148.609375 -53.90625 C 163.492188 -53.90625 176.582031 -56.726562 187.875 -62.375 C 199.164062 -68.019531 208.535156 -75.585938 215.984375 -85.078125 C 223.429688 -94.578125 229.078125 -105.226562 232.921875 -117.03125 C 236.773438 -128.84375 238.703125 -140.910156 238.703125 -153.234375 Z M 238.703125 -153.234375 "/></g></g></g><g fill="#ffffff" fill-opacity="1"><g transform="translate(4223.974126, 480)"><g><path d="M 275.65625 -74.3125 L 275.65625 -172.09375 L 197.125 -14.625 C 196.601562 -13.082031 195.445312 -12.3125 193.65625 -12.3125 L 146.296875 -12.3125 C 144.242188 -12.3125 142.960938 -13.082031 142.453125 -14.625 L 58.90625 -176.328125 L 58.90625 -3.46875 C 58.90625 -1.15625 57.492188 0 54.671875 0 L 3.84375 0 C 1.28125 0 0 -1.15625 0 -3.46875 L 0 -304.53125 C 0 -306.84375 1.28125 -308 3.84375 -308 L 55.4375 -308 C 57.488281 -308 58.773438 -307.226562 59.296875 -305.6875 L 169.78125 -80.078125 L 274.890625 -305.6875 C 275.921875 -307.226562 277.332031 -308 279.125 -308 L 329.9375 -308 C 332.769531 -308 334.1875 -306.84375 334.1875 -304.53125 L 334.1875 -74.3125 Z M 275.65625 -74.3125 "/></g></g></g></svg>